<svg width="800" height="800" viewBox="0 0 800 800" fill="none" xmlns="http://www.w3.org/2000/svg">
<path d="M549.905 434.823C535.696 414.199 506.438 442.711 475.137 411.414C457.058 393.339 493.97 311.508 469.897 287.44C445.824 263.372 367.186 242.513 322.249 287.44C277.313 332.367 303.968 374.934 227.332 371.327C227.26 371.323 227.192 371.324 227.122 371.321C181.364 368.522 137.214 382.795 105.021 414.98C39.0576 480.929 48.2783 597.075 125.617 674.396C202.955 751.719 319.123 760.938 385.086 694.988C417.156 662.925 431.449 618.995 428.788 573.431C432.984 516.888 450.048 515.36 485.841 516.389C541.005 517.978 564.115 455.447 549.905 434.823Z" fill="#E2A042"/>
<path d="M311.12 432.72L635.417 138.508C637.238 136.844 639.63 135.947 642.096 136.002C644.562 136.058 646.911 137.062 648.656 138.806L662.194 152.344C663.938 154.089 664.942 156.438 664.998 158.904C665.053 161.37 664.156 163.762 662.492 165.583L368.279 489.881C367.406 490.837 366.348 491.606 365.17 492.141C363.991 492.677 362.716 492.968 361.421 492.998C360.127 493.027 358.84 492.793 357.639 492.312C356.437 491.83 355.345 491.109 354.43 490.194L310.807 446.571C309.891 445.655 309.171 444.564 308.689 443.362C308.207 442.16 307.973 440.873 308.002 439.579C308.032 438.284 308.323 437.009 308.859 435.83C309.394 434.651 310.164 433.593 311.12 432.72Z" fill="#A36119"/>
<path d="M292.311 567C289.987 567.003 287.686 566.547 285.54 565.658C283.393 564.768 281.444 563.464 279.803 561.819L238.181 520.197C231.273 513.29 231.273 502.09 238.181 495.181C245.09 488.273 256.29 488.273 263.197 495.181L304.819 536.803C311.727 543.711 311.727 554.91 304.819 561.819C303.178 563.464 301.228 564.768 299.082 565.657C296.935 566.546 294.634 567.003 292.311 567Z" fill="#FFE1AB"/>
<path d="M712.094 111.197C711.514 110.617 710.728 110.292 709.909 110.292C709.089 110.292 708.303 110.617 707.723 111.197L394.324 424.638C392.712 421.797 390.826 419.12 388.694 416.646L700.913 104.385C701.46 103.799 701.758 103.024 701.744 102.222C701.73 101.42 701.405 100.655 700.839 100.089C700.272 99.5216 699.507 99.197 698.706 99.1831C697.904 99.1692 697.128 99.4671 696.542 100.014L384.391 412.207C381.986 410.018 379.375 408.067 376.594 406.382L689.732 93.2028C690.279 92.6166 690.577 91.8409 690.563 91.0393C690.549 90.2377 690.224 89.4728 689.658 88.9059C689.091 88.339 688.326 88.0144 687.524 88.0005C686.723 87.9866 685.947 88.2844 685.361 88.8313L370.844 403.392C352.399 395.263 330.076 398.74 314.966 413.852C299.857 428.963 296.379 451.29 304.507 469.737L218.858 555.398L208.02 544.561C201.462 538.002 190.456 539.524 185.922 547.615L173.785 569.281C172.295 571.941 171.714 575.015 172.132 578.036C172.549 581.057 173.942 583.858 176.098 586.015L214.98 624.902C217.136 627.058 219.937 628.451 222.957 628.868C225.978 629.286 229.052 628.705 231.712 627.215L253.374 615.076C261.465 610.542 262.986 599.534 256.428 592.975L245.591 582.136L331.635 496.08C349.801 503.437 371.391 499.749 386.121 485.016C400.851 470.285 404.538 448.69 397.184 430.523L712.094 115.569C712.381 115.282 712.609 114.941 712.765 114.566C712.92 114.191 713 113.789 713 113.383C713 112.977 712.92 112.575 712.765 112.2C712.609 111.825 712.381 111.484 712.094 111.197ZM307.497 475.489C309.182 478.271 311.132 480.883 313.321 483.287L230.037 566.582L223.227 559.771L307.497 475.489ZM241.218 577.765L234.408 570.954L317.76 487.591C320.234 489.723 322.911 491.61 325.751 493.222L241.218 577.765Z" fill="#2B3B47"/>
<path d="M610.997 137.556L682.556 65.9974C687.886 60.6675 696.528 60.6675 701.859 65.9974L734.003 98.141C739.332 103.471 739.332 112.113 734.003 117.444L662.444 189.003C657.114 194.332 648.472 194.332 643.141 189.003L610.997 156.859C605.668 151.528 605.668 142.886 610.997 137.556Z" fill="#E2A042"/>
<path d="M675.497 71.053C678.976 74.5319 677.927 81.222 673.155 85.9944C668.382 90.7669 661.692 91.8168 658.213 88.3365C654.734 84.8562 655.783 78.1675 660.555 73.3951C665.328 68.6226 672.016 67.5741 675.497 71.053ZM639.474 94.4748C634.702 99.2473 633.652 105.937 637.132 109.416C640.612 112.895 647.301 111.847 652.074 107.074C656.846 102.302 657.896 95.6117 654.416 92.1328C650.938 88.6539 644.248 89.7024 639.474 94.4748ZM618.396 115.555C613.623 120.327 612.573 127.017 616.054 130.496C619.533 133.975 626.223 132.926 630.995 128.154C635.768 123.382 636.817 116.691 633.337 113.213C629.858 109.732 623.168 110.782 618.396 115.555ZM715.005 127.846C710.232 132.618 709.183 139.309 712.663 142.787C716.142 146.266 722.832 145.218 727.604 140.445C732.377 135.673 733.427 128.983 729.946 125.504C726.466 122.025 719.777 123.074 715.005 127.846ZM693.925 148.926C689.153 153.698 688.103 160.388 691.583 163.867C695.063 167.346 701.752 166.298 706.525 161.525C711.297 156.753 712.347 150.063 708.867 146.584C705.388 143.103 698.699 144.153 693.925 148.926ZM672.845 170.006C668.073 174.778 667.023 181.468 670.503 184.947C673.982 188.426 680.672 187.377 685.445 182.605C690.217 177.832 691.267 171.142 687.787 167.664C684.308 164.183 677.619 165.232 672.845 170.006Z" fill="#A36119"/>
</svg>
