<svg width="800" height="800" viewBox="0 0 800 800" fill="none" xmlns="http://www.w3.org/2000/svg">
<path fillRule="evenodd" clipRule="evenodd" d="M325.917 147H385.311V166.85C533.899 200.894 550.868 272.229 464.711 384.678C473.877 273.119 462.616 249.184 385.311 243.999V526.091C385.468 527.61 385.52 529.077 385.52 530.596C385.52 567.258 347.024 603.606 299.625 611.829C252.173 620.052 213.73 596.955 213.73 560.292C213.73 510.274 282.446 466.855 325.969 482.149L325.917 147Z" fill="#360682"/>
<path d="M631.413 361.11L634.032 360.795C631.361 339.164 637.07 319.209 651.263 301.035C665.457 282.809 683.369 272.386 705 269.663L704.686 267.044C683.003 269.715 663.1 264.006 644.873 249.812C626.647 235.619 616.224 217.706 613.501 196.076L610.882 196.39C613.553 217.968 607.844 237.923 593.65 256.15C579.457 274.376 561.545 284.851 539.914 287.523L540.228 290.141C561.911 287.47 581.866 293.179 600.04 307.373C618.267 321.566 628.689 339.479 631.413 361.11Z" fill="#76C2AF"/>
<path d="M582.747 510.959L585.366 510.645C582.695 489.014 588.404 469.059 602.597 450.885C616.791 432.658 634.703 422.236 656.334 419.512L656.02 416.893C634.337 419.565 614.434 413.856 596.208 399.662C577.981 385.468 567.558 367.556 564.835 345.925L562.216 346.239C564.887 367.818 559.178 387.773 544.985 405.999C530.791 424.226 512.879 434.701 491.248 437.372L491.562 439.991C513.245 437.32 533.2 443.029 551.375 457.222C569.601 471.416 580.024 489.328 582.747 510.959Z" fill="#E91E63"/>
<path d="M491.248 652.734L493.867 652.42C491.195 630.789 496.904 610.834 511.098 592.66C525.292 574.434 543.204 564.011 564.835 561.287L564.521 558.669C542.837 561.34 522.935 555.631 504.708 541.437C486.482 527.244 476.059 509.331 473.336 487.7L470.717 488.015C473.388 509.593 467.679 529.548 453.485 547.775C439.292 566.001 421.379 576.476 399.748 579.147L400.063 581.766C421.746 579.095 441.701 584.804 459.875 598.998C478.102 613.191 488.524 631.104 491.248 652.734Z" fill="#E2A042"/>
<path d="M168.792 418.15C168.792 430.197 178.586 439.991 190.632 439.991H277.732C289.778 439.991 299.572 430.197 299.572 418.15C299.572 406.104 289.778 396.31 277.732 396.31H190.632C178.586 396.31 168.792 406.104 168.792 418.15Z" fill="#91482C"/>
<path d="M127.52 312.143C127.52 324.189 137.314 333.984 149.361 333.984H277.784C289.831 333.984 299.625 324.189 299.625 312.143C299.625 300.097 289.831 290.303 277.784 290.303H149.361C137.314 290.303 127.52 300.097 127.52 312.143Z" fill="#91482C"/>
<path d="M94 206.084C94 218.182 103.794 227.976 115.84 227.976L277.784 227.924C289.831 227.924 299.625 218.13 299.625 206.084C299.625 194.037 289.831 184.243 277.784 184.243H115.84C103.794 184.243 94 194.037 94 206.084Z" fill="#91482C"/>
</svg>
